<?xml version="1.0" encoding="UTF-8"?>
<svg xmlns="http://www.w3.org/2000/svg" xmlns:xlink="http://www.w3.org/1999/xlink" width="29px" height="32px" viewBox="0 0 29 32" version="1.1">
<defs>
<linearGradient id="linear0" gradientUnits="userSpaceOnUse" x1="60.5" y1="183.64" x2="300.81" y2="183.64" gradientTransform="matrix(0.0938866,0,0,0.0930584,-0.112043,-0.186117)">
<stop offset="0" style="stop-color:rgb(92.156863%,30.588235%,14.117647%);stop-opacity:1;"/>
<stop offset="1" style="stop-color:rgb(97.647059%,74.117647%,25.490196%);stop-opacity:1;"/>
</linearGradient>
<linearGradient id="linear1" gradientUnits="userSpaceOnUse" x1="44.52" y1="189.71" x2="190.1" y2="47.16" gradientTransform="matrix(0.0938866,0,0,0.0930584,-0.112043,-0.186117)">
<stop offset="0" style="stop-color:rgb(47.45098%,37.647059%,66.27451%);stop-opacity:1;"/>
<stop offset="0.7" style="stop-color:rgb(20.392157%,36.862745%,66.666667%);stop-opacity:1;"/>
</linearGradient>
<linearGradient id="linear2" gradientUnits="userSpaceOnUse" x1="236.7" y1="232.44" x2="307.47" y2="166.85" gradientTransform="matrix(0.0938866,0,0,0.0930584,-0.112043,-0.186117)">
<stop offset="0" style="stop-color:rgb(47.45098%,37.647059%,66.27451%);stop-opacity:1;"/>
<stop offset="0.7" style="stop-color:rgb(20.392157%,36.862745%,66.666667%);stop-opacity:1;"/>
</linearGradient>
</defs>
<g id="surface1">
<path style=" stroke:none;fill-rule:nonzero;fill:url(#linear0);" d="M 27.742188 2.074219 C 27.609375 1.65625 27.375 1.839844 27.167969 1.890625 C 24.839844 2.472656 22.515625 3.070312 20.183594 3.660156 C 17.089844 4.449219 13.996094 5.222656 10.90625 6.023438 C 7.726562 6.847656 5.546875 9.65625 5.570312 12.996094 C 5.523438 14.199219 6.023438 15.378906 6.542969 16.554688 C 8.539062 21.078125 10.535156 25.601562 12.527344 30.128906 C 13.15625 31.554688 14.5 32.257812 15.917969 31.914062 C 17.28125 31.578125 18.238281 30.34375 18.128906 29.019531 C 18.035156 27.832031 17.914062 26.648438 17.800781 25.460938 C 17.613281 23.425781 17.425781 21.386719 17.222656 19.355469 C 17.191406 19.042969 17.296875 18.964844 17.574219 18.910156 C 19.1875 18.574219 20.648438 17.941406 21.785156 16.710938 C 23.148438 15.234375 23.8125 13.496094 23.703125 11.5 C 23.683594 11.144531 23.765625 10.976562 24.097656 10.816406 C 27.417969 9.183594 28.890625 5.609375 27.742188 2.074219 Z M 15.472656 29.992188 C 15.007812 30.125 14.628906 29.925781 14.449219 29.511719 C 13.851562 28.164062 13.148438 26.855469 12.730469 25.441406 C 12.0625 23.210938 13.199219 20.667969 15.265625 19.703125 C 15.398438 21.09375 15.535156 22.433594 15.660156 23.777344 C 15.824219 25.507812 15.980469 27.242188 16.140625 28.972656 C 16.179688 29.484375 15.976562 29.847656 15.472656 29.992188 Z M 21.828125 10.578125 C 20.992188 11.566406 21.855469 12.785156 21.148438 14.214844 C 20.910156 14.699219 20.582031 15.136719 20.183594 15.507812 C 19.324219 16.332031 18.210938 16.789062 16.941406 17.023438 C 14.195312 17.527344 12.105469 18.898438 10.976562 21.636719 C 10.789062 21.230469 10.640625 20.914062 10.503906 20.589844 C 9.824219 19 9.867188 17.425781 10.753906 15.933594 C 11.578125 14.539062 12.847656 13.796875 14.449219 13.445312 C 14.730469 13.382812 15.019531 13.316406 15.304688 13.25 C 15.332031 13.226562 15.804688 12.8125 15.707031 12.1875 C 15.636719 11.753906 15.328125 11.398438 14.910156 11.261719 L 14.097656 11.453125 C 11.496094 12.066406 9.5625 13.433594 8.484375 16.027344 C 8.273438 15.546875 8.109375 15.179688 7.949219 14.800781 C 6.972656 12.402344 7.863281 9.796875 10.105469 8.457031 C 10.8125 8.035156 11.605469 7.886719 12.386719 7.6875 C 16.824219 6.5625 21.253906 5.429688 25.679688 4.292969 C 25.878906 4.242188 26 4.238281 26.066406 4.292969 C 26.175781 4.386719 26.160156 4.574219 26.144531 4.667969 C 25.925781 6.429688 25.425781 7.191406 25.425781 7.191406 C 25.277344 7.414062 25.078125 7.679688 23.625 8.972656 C 22.898438 9.625 22.589844 9.863281 22.425781 10.011719 C 22.066406 10.34375 21.886719 10.507812 21.824219 10.578125 Z M 21.828125 10.578125 "/>
<path style=" stroke:none;fill-rule:nonzero;fill:url(#linear1);" d="M 15.039062 0 C 5.488281 0.0078125 -1.324219 8.019531 0.242188 16.796875 C 0.96875 20.875 3.136719 24.046875 6.601562 26.351562 C 6.882812 26.539062 7.164062 26.757812 7.53125 26.734375 C 7.984375 26.703125 8.324219 26.476562 8.449219 26.035156 C 8.578125 25.597656 8.449219 25.1875 8.039062 24.921875 C 7.3125 24.453125 6.605469 23.96875 5.992188 23.371094 C 2.492188 19.957031 1.1875 15.851562 2.460938 11.148438 C 3.734375 6.449219 6.917969 3.511719 11.671875 2.289062 C 13.730469 1.757812 15.796875 1.875 17.847656 2.402344 C 18.652344 2.605469 19.277344 2.046875 19.125 1.265625 C 19.039062 0.832031 18.742188 0.613281 18.328125 0.503906 C 17.070312 0.167969 15.796875 0 15.039062 0 Z M 15.039062 0 "/>
<path style=" stroke:none;fill-rule:nonzero;fill:url(#linear2);" d="M 26.804688 12.195312 C 26.945312 13.183594 27.046875 14.222656 26.941406 15.277344 C 26.519531 19.605469 24.394531 22.859375 20.648438 25.085938 C 19.816406 25.582031 19.671875 26.40625 20.367188 26.878906 C 20.75 27.140625 21.136719 27.097656 21.527344 26.871094 C 25.949219 24.289062 28.445312 20.480469 28.929688 15.40625 C 29.035156 14.253906 28.980469 13.09375 28.765625 11.953125 C 28.675781 11.472656 28.363281 11.203125 27.886719 11.152344 C 27.457031 11.109375 27.128906 11.300781 26.910156 11.679688 C 26.832031 11.839844 26.796875 12.015625 26.804688 12.195312 Z M 26.804688 12.195312 "/>
</g>
</svg>
