<?xml version="1.0" encoding="UTF-8"?>
<svg xmlns="http://www.w3.org/2000/svg" xmlns:xlink="http://www.w3.org/1999/xlink" width="192px" height="213px" viewBox="0 0 192 213" version="1.1">
<defs>
<linearGradient id="linear0" gradientUnits="userSpaceOnUse" x1="60.5" y1="183.64" x2="300.81" y2="183.64" gradientTransform="matrix(0.621594,0,0,0.61942,-0.741802,-1.23884)">
<stop offset="0" style="stop-color:rgb(92.156863%,30.588235%,14.117647%);stop-opacity:1;"/>
<stop offset="1" style="stop-color:rgb(97.647059%,74.117647%,25.490196%);stop-opacity:1;"/>
</linearGradient>
<linearGradient id="linear1" gradientUnits="userSpaceOnUse" x1="44.52" y1="189.71" x2="190.1" y2="47.16" gradientTransform="matrix(0.621594,0,0,0.61942,-0.741802,-1.23884)">
<stop offset="0" style="stop-color:rgb(47.45098%,37.647059%,66.27451%);stop-opacity:1;"/>
<stop offset="0.7" style="stop-color:rgb(20.392157%,36.862745%,66.666667%);stop-opacity:1;"/>
</linearGradient>
<linearGradient id="linear2" gradientUnits="userSpaceOnUse" x1="236.7" y1="232.44" x2="307.47" y2="166.85" gradientTransform="matrix(0.621594,0,0,0.61942,-0.741802,-1.23884)">
<stop offset="0" style="stop-color:rgb(47.45098%,37.647059%,66.27451%);stop-opacity:1;"/>
<stop offset="0.7" style="stop-color:rgb(20.392157%,36.862745%,66.666667%);stop-opacity:1;"/>
</linearGradient>
</defs>
<g id="surface1">
<path style=" stroke:none;fill-rule:nonzero;fill:url(#linear0);" d="M 183.683594 13.8125 C 182.785156 11.019531 181.230469 12.234375 179.875 12.574219 C 164.445312 16.457031 149.0625 20.441406 133.632812 24.367188 C 113.160156 29.609375 92.671875 34.761719 72.214844 40.082031 C 51.144531 45.570312 36.726562 64.285156 36.882812 86.503906 C 36.558594 94.511719 39.875 102.367188 43.3125 110.1875 C 56.539062 140.300781 69.75 170.417969 82.945312 200.542969 C 87.101562 210.027344 95.996094 214.726562 105.375 212.425781 C 114.410156 210.199219 120.742188 201.980469 120.035156 193.160156 C 119.414062 185.257812 118.59375 177.371094 117.859375 169.472656 C 116.613281 155.921875 115.371094 142.367188 114.03125 128.828125 C 113.824219 126.757812 114.507812 126.238281 116.339844 125.859375 C 127.03125 123.636719 136.699219 119.417969 144.246094 111.222656 C 153.269531 101.398438 157.652344 89.839844 156.925781 76.535156 C 156.796875 74.183594 157.355469 73.066406 159.535156 71.996094 C 181.527344 61.128906 191.28125 37.332031 183.683594 13.8125 Z M 102.441406 199.632812 C 99.367188 200.511719 96.847656 199.191406 95.660156 196.449219 C 91.703125 187.480469 87.066406 178.765625 84.28125 169.355469 C 79.867188 154.488281 87.386719 137.566406 101.0625 131.15625 C 101.957031 140.398438 102.839844 149.328125 103.6875 158.273438 C 104.753906 169.796875 105.8125 181.320312 106.855469 192.851562 C 107.128906 196.246094 105.769531 198.667969 102.441406 199.632812 Z M 144.507812 70.421875 C 138.980469 76.988281 144.6875 85.101562 140.023438 94.628906 C 138.425781 97.851562 136.261719 100.761719 133.632812 103.21875 C 127.941406 108.714844 120.582031 111.742188 112.171875 113.304688 C 93.984375 116.675781 80.140625 125.785156 72.679688 144.007812 C 71.4375 141.320312 70.449219 139.207031 69.535156 137.058594 C 65.042969 126.460938 65.339844 116 71.1875 106.058594 C 76.648438 96.765625 85.0625 91.847656 95.660156 89.5 C 97.527344 89.085938 99.441406 88.644531 101.324219 88.207031 C 101.511719 88.042969 104.628906 85.277344 103.984375 81.113281 C 103.519531 78.238281 101.488281 75.863281 98.714844 74.949219 L 93.335938 76.246094 C 76.125 80.3125 63.320312 89.425781 56.171875 106.671875 C 54.785156 103.492188 53.683594 101.035156 52.640625 98.523438 C 46.167969 82.550781 52.054688 65.207031 66.898438 56.300781 C 71.582031 53.480469 76.84375 52.484375 82.011719 51.15625 C 111.378906 43.671875 140.714844 36.148438 170.015625 28.585938 C 171.347656 28.238281 172.128906 28.214844 172.578125 28.585938 C 173.304688 29.207031 173.199219 30.445312 173.105469 31.0625 C 171.644531 42.796875 168.332031 47.855469 168.332031 47.855469 C 167.351562 49.34375 166.03125 51.125 156.410156 59.730469 C 151.59375 64.066406 149.570312 65.640625 148.472656 66.648438 C 146.089844 68.84375 144.902344 69.9375 144.492188 70.421875 Z M 144.507812 70.421875 "/>
<path style=" stroke:none;fill-rule:nonzero;fill:url(#linear1);" d="M 99.566406 0 C 36.324219 0.0625 -8.761719 53.371094 1.59375 111.792969 C 6.414062 138.960938 20.765625 160.050781 43.707031 175.40625 C 45.574219 176.644531 47.4375 178.109375 49.855469 177.941406 C 52.859375 177.742188 55.109375 176.230469 55.949219 173.308594 C 56.785156 170.382812 55.949219 167.660156 53.21875 165.875 C 48.425781 162.777344 43.734375 159.542969 39.667969 155.554688 C 16.5 132.847656 7.859375 105.503906 16.289062 74.210938 C 24.71875 42.917969 45.808594 23.382812 77.273438 15.238281 C 90.894531 11.714844 104.582031 12.476562 118.167969 15.980469 C 123.503906 17.34375 127.617188 13.628906 126.609375 8.429688 C 126.050781 5.550781 124.082031 4.09375 121.332031 3.34375 C 113.011719 1.113281 104.574219 0 99.566406 0 Z M 99.566406 0 "/>
<path style=" stroke:none;fill-rule:nonzero;fill:url(#linear2);" d="M 177.46875 81.175781 C 178.402344 87.746094 179.058594 94.664062 178.375 101.683594 C 175.574219 130.488281 161.519531 152.148438 136.699219 166.984375 C 131.199219 170.273438 130.234375 175.773438 134.835938 178.914062 C 137.390625 180.667969 139.949219 180.375 142.523438 178.863281 C 171.8125 161.667969 188.316406 136.335938 191.523438 102.558594 C 192.226562 94.878906 191.867188 87.144531 190.453125 79.566406 C 189.863281 76.355469 187.789062 74.558594 184.625 74.242188 C 181.78125 73.953125 179.601562 75.210938 178.164062 77.742188 C 177.640625 78.808594 177.402344 79.992188 177.46875 81.175781 Z M 177.46875 81.175781 "/>
</g>
</svg>
