<?xml version="1.0" encoding="UTF-8"?>
<svg xmlns="http://www.w3.org/2000/svg" xmlns:xlink="http://www.w3.org/1999/xlink" width="461px" height="512px" viewBox="0 0 461 513" version="1.1">
<defs>
<linearGradient id="linear0" gradientUnits="userSpaceOnUse" x1="60.5" y1="183.64" x2="300.81" y2="183.64" gradientTransform="matrix(1.492473,0,0,1.491843,-1.781098,-2.983686)">
<stop offset="0" style="stop-color:rgb(92.156863%,30.588235%,14.117647%);stop-opacity:1;"/>
<stop offset="1" style="stop-color:rgb(97.647059%,74.117647%,25.490196%);stop-opacity:1;"/>
</linearGradient>
<linearGradient id="linear1" gradientUnits="userSpaceOnUse" x1="44.52" y1="189.71" x2="190.1" y2="47.16" gradientTransform="matrix(1.492473,0,0,1.491843,-1.781098,-2.983686)">
<stop offset="0" style="stop-color:rgb(47.45098%,37.647059%,66.27451%);stop-opacity:1;"/>
<stop offset="0.7" style="stop-color:rgb(20.392157%,36.862745%,66.666667%);stop-opacity:1;"/>
</linearGradient>
<linearGradient id="linear2" gradientUnits="userSpaceOnUse" x1="236.7" y1="232.44" x2="307.47" y2="166.85" gradientTransform="matrix(1.492473,0,0,1.491843,-1.781098,-2.983686)">
<stop offset="0" style="stop-color:rgb(47.45098%,37.647059%,66.27451%);stop-opacity:1;"/>
<stop offset="0.7" style="stop-color:rgb(20.392157%,36.862745%,66.666667%);stop-opacity:1;"/>
</linearGradient>
</defs>
<g id="surface1">
<path style=" stroke:none;fill-rule:nonzero;fill:url(#linear0);" d="M 441.035156 33.269531 C 438.871094 26.539062 435.140625 29.464844 431.886719 30.285156 C 394.84375 39.636719 357.90625 49.230469 320.863281 58.6875 C 271.699219 71.308594 222.507812 83.722656 173.390625 96.539062 C 122.796875 109.753906 88.183594 154.824219 88.558594 208.335938 C 87.78125 227.625 95.738281 246.542969 103.992188 265.382812 C 135.75 337.90625 167.46875 410.445312 199.152344 483 C 209.136719 505.839844 230.492188 517.164062 253.015625 511.613281 C 274.699219 506.257812 289.90625 486.460938 288.207031 465.214844 C 286.714844 446.179688 284.742188 427.1875 282.984375 408.167969 C 279.996094 375.527344 277.011719 342.886719 273.789062 310.273438 C 273.296875 305.289062 274.9375 304.039062 279.339844 303.128906 C 305.011719 297.773438 328.21875 287.613281 346.339844 267.875 C 368.007812 244.214844 378.53125 216.375 376.785156 184.332031 C 376.472656 178.664062 377.816406 175.976562 383.054688 173.398438 C 435.855469 147.230469 459.273438 89.914062 441.035156 33.269531 Z M 245.96875 480.804688 C 238.582031 482.925781 232.539062 479.746094 229.6875 473.136719 C 220.179688 451.535156 209.046875 430.546875 202.359375 407.882812 C 191.761719 372.082031 209.820312 331.324219 242.65625 315.882812 C 244.804688 338.140625 246.925781 359.652344 248.953125 381.195312 C 251.523438 408.945312 254.058594 436.703125 256.566406 464.46875 C 257.222656 472.644531 253.953125 478.480469 245.96875 480.804688 Z M 346.964844 169.609375 C 333.695312 185.421875 347.398438 204.964844 336.203125 227.910156 C 332.371094 235.667969 327.175781 242.675781 320.863281 248.601562 C 307.191406 261.832031 289.519531 269.128906 269.328125 272.886719 C 225.65625 281.003906 192.417969 302.949219 174.511719 346.839844 C 171.523438 340.363281 169.152344 335.277344 166.957031 330.101562 C 156.167969 304.574219 156.882812 279.378906 170.929688 255.433594 C 184.03125 233.054688 204.238281 221.210938 229.6875 215.554688 C 234.164062 214.558594 238.761719 213.496094 243.28125 212.4375 C 243.730469 212.050781 251.222656 205.382812 249.671875 195.355469 C 248.554688 188.4375 243.675781 182.710938 237.015625 180.511719 L 224.105469 183.632812 C 182.777344 193.433594 152.035156 215.378906 134.871094 256.910156 C 131.542969 249.257812 128.898438 243.335938 126.390625 237.292969 C 110.855469 198.816406 124.988281 157.046875 160.628906 135.59375 C 171.867188 128.804688 184.507812 126.402344 196.910156 123.210938 C 267.425781 105.179688 337.859375 87.058594 408.214844 68.847656 C 411.410156 68.011719 413.289062 67.953125 414.367188 68.847656 C 416.113281 70.339844 415.859375 73.324219 415.632812 74.816406 C 412.125 103.070312 404.171875 115.261719 404.171875 115.261719 C 401.8125 118.839844 398.648438 123.136719 375.546875 143.859375 C 363.980469 154.300781 359.128906 158.089844 356.488281 160.523438 C 350.769531 165.804688 347.921875 168.445312 346.933594 169.609375 Z M 346.964844 169.609375 "/>
<path style=" stroke:none;fill-rule:nonzero;fill:url(#linear1);" d="M 239.058594 0 C 87.214844 0.148438 -21.035156 128.539062 3.832031 269.246094 C 15.398438 334.679688 49.859375 385.476562 104.945312 422.460938 C 109.421875 425.445312 113.902344 428.964844 119.707031 428.5625 C 126.914062 428.085938 132.316406 424.445312 134.332031 417.402344 C 136.347656 410.359375 134.332031 403.796875 127.78125 399.5 C 116.273438 392.042969 105.003906 384.253906 95.246094 374.648438 C 39.621094 319.957031 18.875 254.105469 39.113281 178.738281 C 59.351562 103.371094 109.992188 56.316406 185.539062 36.699219 C 218.238281 28.210938 251.105469 30.046875 283.730469 38.488281 C 296.535156 41.773438 306.414062 32.820312 303.996094 20.304688 C 302.652344 13.367188 297.921875 9.859375 291.324219 8.054688 C 271.339844 2.683594 251.089844 0 239.058594 0 Z M 239.058594 0 "/>
<path style=" stroke:none;fill-rule:nonzero;fill:url(#linear2);" d="M 426.109375 195.507812 C 428.351562 211.335938 429.933594 228 428.289062 244.902344 C 421.558594 314.273438 387.8125 366.441406 328.21875 402.171875 C 315.011719 410.09375 312.699219 423.339844 323.742188 430.902344 C 329.875 435.125 336.023438 434.425781 342.203125 430.785156 C 412.53125 389.371094 452.15625 328.355469 459.855469 247.003906 C 461.546875 228.515625 460.683594 209.882812 457.289062 191.628906 C 455.871094 183.898438 450.886719 179.574219 443.289062 178.8125 C 436.46875 178.109375 431.230469 181.140625 427.78125 187.242188 C 426.523438 189.804688 425.949219 192.652344 426.109375 195.507812 Z M 426.109375 195.507812 "/>
</g>
</svg>
